# xmcd
#
# Track frame offsets:
#	182
#	14402
#	30692
#	45157
#	59107
#	79340
#	94677
#	113282
#	131175
#	144885
#	158025
#	174482
#	195752
#	213045
#	234327
#	249567
#
# Disc length: 3553 seconds
#
# Revision: 1
# Processed by: cddbd v1.5.1PL0 Copyright (c) Steve Scherf et al.
# Submitted via: audiograbber 1.81.02
#
DISCID=c30ddf10
DTITLE=Various Artist - Twang This - The Real Sound Of New Country
DYEAR=2000
DGENRE=Country
TTITLE0=Alan Jackson - Pop A Top
TTITLE1=Sherrie Austin - Never Been Kissed
TTITLE2=Kenny Chesney - How Forever Feels
TTITLE3=Mindy Mccready - Lucky Me
TTITLE4=Clint Black - When I Said I Do
TTITLE5=Sara Evans - Imagine That
TTITLE6=Clay Walker - Live, Laugh, Love
TTITLE7=Diamond Rio - You're Gone
TTITLE8=The Wilkinsons - Boy Oh Boy
TTITLE9=The Warren Brothers - She Wants To Rock
TTITLE10=Pam Tillis - After A Kiss
TTITLE11=Brad Paisley - He Didn't Have To Be
TTITLE12=Lorrie Morgan - The Only Thing That Looks Good On Me Is You
TTITLE13=The Tractors - The Poor Boy Shuffle
TTITLE14=Alabama Feat. N'sync - God Must Have Spent (A Little More Time On You)
TTITLE15=Brooks and Dunn - Missing You
EXTD=
EXTT0=
EXTT1=
EXTT2=
EXTT3=
EXTT4=
EXTT5=
EXTT6=
EXTT7=
EXTT8=
EXTT9=
EXTT10=
EXTT11=
EXTT12=
EXTT13=
EXTT14=
EXTT15=
PLAYORDER=
